<?xml version="1.0" encoding="utf-8"?>
<!-- Generator: Adobe Illustrator 16.0.0, SVG Export Plug-In . SVG Version: 6.00 Build 0)  -->
<!DOCTYPE svg PUBLIC "-//W3C//DTD SVG 1.1//EN" "http://www.w3.org/Graphics/SVG/1.1/DTD/svg11.dtd" [
	<!ENTITY ns_flows "http://ns.adobe.com/Flows/1.0/">
	<!ENTITY ns_extend "http://ns.adobe.com/Extensibility/1.0/">
	<!ENTITY ns_ai "http://ns.adobe.com/AdobeIllustrator/10.0/">
	<!ENTITY ns_graphs "http://ns.adobe.com/Graphs/1.0/">
	<!ENTITY ns_vars "http://ns.adobe.com/Variables/1.0/">
	<!ENTITY ns_imrep "http://ns.adobe.com/ImageReplacement/1.0/">
	<!ENTITY ns_sfw "http://ns.adobe.com/SaveForWeb/1.0/">
	<!ENTITY ns_custom "http://ns.adobe.com/GenericCustomNamespace/1.0/">
	<!ENTITY ns_adobe_xpath "http://ns.adobe.com/XPath/1.0/">
]>
<svg version="1.1" xmlns:x="&ns_extend;" xmlns:i="&ns_ai;" xmlns:graph="&ns_graphs;"
	 xmlns="http://www.w3.org/2000/svg" xmlns:xlink="http://www.w3.org/1999/xlink" xmlns:a="http://ns.adobe.com/AdobeSVGViewerExtensions/3.0/"
	 x="0px" y="0px" width="374.783px" height="245.078px" viewBox="0 0 374.783 245.078"
	 style="enable-background:new 0 0 374.783 245.078;" xml:space="preserve">
<metadata>
	<sfw  xmlns="&ns_sfw;">
		<slices></slices>
		<sliceSourceBounds  height="3968.767" width="4609.67" bottomLeftOrigin="true" x="-293.671" y="-1879.3"></sliceSourceBounds>
	</sfw>
</metadata>
<g id="Canvas">
</g>
<g id="A4">
</g>
<g id="Color">
	<g>
		<g>
			<g>
				<path style="fill:#D23590;" d="M84.732,127.789c0.912,0,1.696,0.351,2.361,1.053l6.578,7.139
					c-3.644,4.505-8.124,7.962-13.441,10.361c-5.313,2.405-11.694,3.6-19.144,3.6c-6.668,0-12.654-1.137-17.974-3.414
					c-5.313-2.271-9.855-5.437-13.618-9.493c-3.769-4.052-6.65-8.895-8.66-14.521c-2.007-5.627-3.013-11.772-3.013-18.439
					c0-6.744,1.117-12.919,3.354-18.528c2.231-5.601,5.378-10.432,9.436-14.489c4.055-4.059,8.904-7.21,14.551-9.461
					c5.652-2.26,11.89-3.389,18.715-3.389c6.658,0,12.483,1.072,17.473,3.197c4.986,2.131,9.259,4.956,12.817,8.474l-5.585,7.756
					c-0.334,0.492-0.757,0.933-1.27,1.309c-0.521,0.37-1.233,0.555-2.146,0.555c-0.953,0-1.92-0.371-2.917-1.117
					c-0.991-0.747-2.257-1.549-3.787-2.417c-1.53-0.869-3.467-1.686-5.803-2.418c-2.336-0.754-5.306-1.124-8.906-1.124
					c-4.22,0-8.098,0.741-11.636,2.208c-3.538,1.461-6.582,3.566-9.122,6.296c-2.549,2.732-4.532,6.055-5.963,9.96
					c-1.426,3.911-2.139,8.306-2.139,13.188c0,5.053,0.713,9.546,2.139,13.475c1.431,3.929,3.364,7.234,5.804,9.928
					c2.44,2.692,5.313,4.746,8.63,6.169c3.311,1.436,6.868,2.144,10.674,2.144c2.276,0,4.339-0.121,6.173-0.369
					c1.843-0.249,3.545-0.639,5.095-1.182c1.549-0.536,3.017-1.23,4.404-2.079c1.389-0.849,2.764-1.89,4.129-3.134
					c0.414-0.376,0.848-0.668,1.306-0.898C83.699,127.896,84.201,127.789,84.732,127.789z"/>
				<path style="fill:#665DC0;" d="M321.456,135.17h35.938v13.78h-52.634V59.202h16.695V135.17z"/>
				<g>
					<path style="fill:#538CD7;" d="M192.274,104.865c0,6.577-1.097,12.671-3.289,18.279c-2.194,5.607-5.28,10.45-9.249,14.553
						c-3.974,4.096-8.753,7.285-14.339,9.59c-5.586,2.296-11.771,3.445-18.557,3.445c-6.787,0-12.982-1.149-18.594-3.445
						c-5.604-2.305-10.401-5.494-14.398-9.59c-3.991-4.103-7.085-8.945-9.277-14.553c-2.196-5.608-3.287-11.702-3.287-18.279
						c0-6.585,1.091-12.673,3.287-18.274c2.192-5.608,5.286-10.47,9.277-14.56c3.997-4.096,8.795-7.299,14.398-9.596
						c5.611-2.291,11.807-3.444,18.594-3.444c6.785,0,12.971,1.161,18.557,3.477c5.586,2.321,10.365,5.518,14.339,9.589
						c3.969,4.076,7.055,8.926,9.249,14.534C191.178,92.191,192.274,98.279,192.274,104.865z M175.141,104.865
						c0-4.927-0.649-9.341-1.956-13.253c-1.301-3.91-3.174-7.235-5.617-9.965c-2.439-2.731-5.407-4.817-8.905-6.266
						c-3.497-1.448-7.438-2.182-11.821-2.182c-4.387,0-8.34,0.734-11.854,2.182c-3.521,1.449-6.509,3.535-8.971,6.266
						c-2.462,2.73-4.358,6.055-5.676,9.965c-1.33,3.912-1.987,8.326-1.987,13.253c0,4.924,0.657,9.34,1.987,13.243
						c1.317,3.912,3.214,7.224,5.676,9.936c2.462,2.711,5.449,4.79,8.971,6.233c3.515,1.455,7.468,2.176,11.854,2.176
						c4.384,0,8.324-0.721,11.821-2.176c3.498-1.443,6.466-3.522,8.905-6.233c2.443-2.711,4.316-6.023,5.617-9.936
						C174.491,114.205,175.141,109.789,175.141,104.865z"/>
					<path style="fill:#538CD7;" d="M179.336,105.049c0,18.585-15.065,33.655-33.652,33.655c-18.594,0-33.662-15.07-33.662-33.655
						c0-18.592,15.068-33.663,33.662-33.663C164.271,71.387,179.336,86.457,179.336,105.049z"/>
				</g>
				<g>
					<path style="fill:#9E3181;" d="M292.042,104.953c0,6.577-1.096,12.677-3.287,18.28c-2.192,5.614-5.276,10.456-9.25,14.553
						c-3.973,4.096-8.753,7.293-14.339,9.596c-5.586,2.292-11.77,3.44-18.557,3.44c-6.784,0-12.979-1.148-18.587-3.44
						c-5.604-2.303-10.409-5.5-14.4-9.596c-3.99-4.097-7.084-8.938-9.283-14.553c-2.19-5.603-3.285-11.703-3.285-18.28
						c0-6.578,1.095-12.671,3.285-18.273c2.199-5.608,5.293-10.463,9.283-14.56c3.991-4.096,8.796-7.286,14.4-9.59
						c5.608-2.297,11.803-3.444,18.587-3.444c6.787,0,12.971,1.16,18.557,3.476c5.586,2.324,10.366,5.513,14.339,9.59
						c3.974,4.077,7.058,8.919,9.25,14.527C290.946,92.282,292.042,98.375,292.042,104.953z M274.914,104.953
						c0-4.926-0.651-9.341-1.954-13.251c-1.302-3.912-3.176-7.229-5.617-9.96c-2.439-2.731-5.412-4.817-8.913-6.272
						c-3.491-1.442-7.433-2.169-11.82-2.169c-4.384,0-8.335,0.728-11.85,2.169c-3.521,1.455-6.514,3.541-8.976,6.272
						c-2.456,2.731-4.352,6.048-5.676,9.96c-1.324,3.911-1.987,8.326-1.987,13.251c0,4.927,0.663,9.341,1.987,13.251
						c1.324,3.911,3.22,7.222,5.676,9.935c2.462,2.705,5.454,4.786,8.976,6.239c3.515,1.443,7.466,2.17,11.85,2.17
						c4.388,0,8.329-0.727,11.82-2.17c3.501-1.453,6.474-3.534,8.913-6.239c2.441-2.713,4.315-6.023,5.617-9.935
						C274.263,114.294,274.914,109.88,274.914,104.953z"/>
					<path style="fill:#9E3181;" d="M281.246,105.138c0,18.585-15.069,33.656-33.656,33.656c-18.591,0-33.656-15.071-33.656-33.656
						c0-18.593,15.065-33.662,33.656-33.662C266.177,71.476,281.246,86.545,281.246,105.138z"/>
				</g>
				<g>
					<path style="fill:#FFFFFF;" d="M172.333,101.393c-1.149,0-2.298-0.421-3.167-1.264c-1.752-1.666-1.752-4.39,0-6.067
						c1.505-1.43,2.333-3.342,2.333-5.372c0-2.036-0.828-3.949-2.333-5.392c-1.499-1.435-3.504-2.227-5.625-2.227
						c-2.117,0-4.123,0.792-5.631,2.227l-16.975,16.263c-1.745,1.672-4.589,1.672-6.332,0c-1.758-1.684-1.758-4.395,0-6.067
						l16.975-16.249c3.193-3.059,7.446-4.748,11.963-4.748c4.514,0,8.763,1.689,11.966,4.748c3.193,3.055,4.955,7.119,4.955,11.445
						c0,4.32-1.762,8.384-4.961,11.439C174.631,100.972,173.483,101.393,172.333,101.393"/>
					<path style="fill:#FFFFFF;" d="M130.014,136.962c-4.519,0-8.764-1.689-11.961-4.753c-6.593-6.303-6.593-16.569,0-22.886
						c1.747-1.679,4.584-1.679,6.336,0c1.749,1.672,1.749,4.382,0,6.068c-3.101,2.955-3.101,7.79,0,10.762
						c1.509,1.441,3.497,2.229,5.625,2.229c2.127,0,4.117-0.787,5.63-2.229l16.975-16.242c1.752-1.68,4.594-1.68,6.342,0
						c1.744,1.663,1.744,4.382,0,6.059l-16.981,16.238C138.779,135.273,134.539,136.962,130.014,136.962"/>
					<path style="fill:#FFFFFF;" d="M163.541,136.962c-4.517,0-8.764-1.689-11.963-4.753c-1.749-1.671-1.749-4.384,0-6.056
						c1.755-1.678,4.597-1.678,6.332,0c1.508,1.441,3.514,2.229,5.631,2.229c2.121,0,4.126-0.787,5.625-2.229
						c3.097-2.973,3.097-7.808,0-10.762L152.193,99.14c-1.758-1.669-1.758-4.389,0-6.067c1.741-1.677,4.591-1.677,6.331,0
						l16.977,16.251c6.591,6.316,6.591,16.583,0,22.886C172.304,135.273,168.055,136.962,163.541,136.962"/>
					<path style="fill:#FFFFFF;" d="M138.547,117.969c-1.148,0-2.293-0.421-3.174-1.256l-17.32-16.583
						c-3.188-3.055-4.962-7.12-4.962-11.439c0-4.326,1.774-8.39,4.962-11.445c3.197-3.059,7.442-4.748,11.961-4.748
						c4.525,0,8.766,1.689,11.965,4.748c1.756,1.67,1.756,4.382,0,6.053c-1.75,1.685-4.59,1.685-6.335,0
						c-1.513-1.435-3.503-2.227-5.63-2.227c-2.128,0-4.116,0.792-5.625,2.227c-1.496,1.442-2.333,3.355-2.333,5.392
						c0,2.03,0.837,3.942,2.333,5.372l17.319,16.588c1.751,1.678,1.751,4.396,0,6.062
						C140.836,117.548,139.698,117.969,138.547,117.969"/>
					<path style="fill:#FFFFFF;" d="M152.035,69.275c0,2.77-2.358,5.015-5.262,5.015c-2.896,0-5.255-2.245-5.255-5.015
						c0-2.782,2.359-5.035,5.255-5.035C149.677,64.241,152.035,66.493,152.035,69.275"/>
					<path style="fill:#FFFFFF;" d="M152.035,140.453c0,2.775-2.358,5.027-5.262,5.027c-2.896,0-5.255-2.252-5.255-5.027
						s2.359-5.027,5.255-5.027C149.677,135.425,152.035,137.677,152.035,140.453"/>
					<path style="fill:#FFFFFF;" d="M183.968,109.892c-2.897,0-5.254-2.253-5.254-5.033c0-2.776,2.356-5.029,5.254-5.029
						c2.905,0,5.256,2.252,5.256,5.029C189.224,107.639,186.873,109.892,183.968,109.892"/>
					<path style="fill:#FFFFFF;" d="M109.583,109.892c-2.899,0-5.256-2.253-5.256-5.033c0-2.776,2.356-5.029,5.256-5.029
						c2.896,0,5.261,2.252,5.261,5.029C114.844,107.639,112.479,109.892,109.583,109.892"/>
				</g>
				<g>
					<path style="fill:#FFFFFF;" d="M272.106,101.488c-1.15,0-2.297-0.421-3.166-1.27c-1.753-1.664-1.753-4.382,0-6.055
						c1.498-1.441,2.33-3.355,2.33-5.384c0-2.036-0.825-3.951-2.33-5.385c-1.508-1.437-3.504-2.228-5.629-2.228
						c-2.121,0-4.118,0.791-5.626,2.228l-16.976,16.25c-1.748,1.678-4.591,1.678-6.332,0c-1.757-1.678-1.757-4.391,0-6.061
						l16.972-16.251c3.194-3.056,7.446-4.747,11.962-4.747c4.518,0,8.763,1.691,11.968,4.747c3.195,3.056,4.95,7.12,4.95,11.447
						c0,4.317-1.755,8.383-4.956,11.439C274.4,101.067,273.256,101.488,272.106,101.488"/>
					<path style="fill:#FFFFFF;" d="M229.788,137.052c-4.524,0-8.77-1.69-11.96-4.747c-6.598-6.303-6.598-16.575,0-22.892
						c1.748-1.678,4.584-1.678,6.338,0c1.744,1.678,1.744,4.39,0,6.066c-3.104,2.967-3.104,7.797,0,10.772
						c1.503,1.441,3.492,2.219,5.622,2.219c2.127,0,4.114-0.777,5.619-2.219l16.985-16.246c1.751-1.684,4.588-1.684,6.335,0
						c1.751,1.666,1.751,4.383,0,6.055l-16.976,16.244C238.558,135.362,234.308,137.052,229.788,137.052"/>
					<path style="fill:#FFFFFF;" d="M263.312,137.052c-4.516,0-8.768-1.69-11.959-4.747c-1.755-1.673-1.755-4.389,0-6.054
						c1.747-1.679,4.591-1.679,6.333,0c1.508,1.441,3.505,2.219,5.626,2.219c2.123,0,4.121-0.777,5.629-2.219
						c3.1-2.975,3.1-7.805,0-10.772l-16.979-16.256c-1.755-1.666-1.755-4.384,0-6.055c1.745-1.672,4.591-1.672,6.331,0l16.98,16.245
						c6.592,6.317,6.592,16.589,0,22.892C272.074,135.362,267.829,137.052,263.312,137.052"/>
					<path style="fill:#FFFFFF;" d="M238.323,118.057c-1.154,0-2.3-0.415-3.177-1.257l-17.318-16.582
						c-3.194-3.056-4.962-7.122-4.962-11.439c0-4.327,1.768-8.384,4.962-11.447c3.19-3.056,7.436-4.747,11.96-4.747
						c4.52,0,8.77,1.691,11.964,4.747c1.747,1.677,1.747,4.39,0,6.062c-1.754,1.678-4.589,1.678-6.345,0
						c-1.505-1.437-3.492-2.228-5.619-2.228c-2.13,0-4.119,0.791-5.622,2.228c-1.505,1.434-2.337,3.349-2.337,5.385
						c0,2.029,0.832,3.943,2.337,5.384l17.317,16.584c1.749,1.67,1.749,4.388,0,6.053
						C240.604,117.643,239.466,118.057,238.323,118.057"/>
					<path style="fill:#FFFFFF;" d="M251.804,69.364c0,2.769-2.354,5.021-5.253,5.021c-2.908,0-5.258-2.252-5.258-5.021
						c0-2.775,2.35-5.028,5.258-5.028C249.45,64.336,251.804,66.588,251.804,69.364"/>
					<path style="fill:#FFFFFF;" d="M251.804,140.542c0,2.78-2.354,5.041-5.253,5.041c-2.908,0-5.258-2.261-5.258-5.041
						c0-2.775,2.35-5.027,5.258-5.027C249.45,135.515,251.804,137.767,251.804,140.542"/>
					<path style="fill:#FFFFFF;" d="M283.741,109.98c-2.903,0-5.253-2.245-5.253-5.033c0-2.769,2.35-5.027,5.253-5.027
						s5.258,2.258,5.258,5.027C288.999,107.735,286.645,109.98,283.741,109.98"/>
					<path style="fill:#FFFFFF;" d="M209.352,109.98c-2.899,0-5.249-2.245-5.249-5.033c0-2.769,2.35-5.027,5.249-5.027
						c2.905,0,5.268,2.258,5.268,5.027C214.619,107.735,212.257,109.98,209.352,109.98"/>
				</g>
			</g>
			<g>
				<path style="fill:#1A1A1A;" d="M32.31,178.83l1.484,1.32c-1.908,1.734-4.009,2.603-6.301,2.603c-2.466,0-4.548-0.851-6.249-2.55
					c-1.7-1.7-2.55-3.74-2.55-6.119c0-2.355,0.85-4.389,2.55-6.101c1.7-1.712,3.783-2.567,6.249-2.567
					c2.292,0,4.393,0.871,6.301,2.614l-1.484,1.319c-1.555-1.374-3.161-2.062-4.817-2.062c-1.806,0-3.367,0.657-4.682,1.974
					c-1.315,1.314-1.973,2.922-1.973,4.822c0,1.916,0.658,3.529,1.973,4.841c1.315,1.312,2.876,1.968,4.682,1.968
					C29.149,180.892,30.755,180.205,32.31,178.83z"/>
				<path style="fill:#1A1A1A;" d="M41.485,170.916c1.719,0,3.164,0.589,4.334,1.767s1.755,2.579,1.755,4.204
					c0,1.61-0.585,3.006-1.755,4.188s-2.615,1.773-4.334,1.773c-1.704,0-3.147-0.592-4.329-1.773s-1.772-2.577-1.772-4.188
					c0-1.625,0.591-3.026,1.772-4.204S39.781,170.916,41.485,170.916z M38.729,173.978c-0.777,0.785-1.166,1.754-1.166,2.908
					c0,1.146,0.389,2.109,1.166,2.887s1.696,1.166,2.756,1.166c1.052,0,1.969-0.389,2.75-1.166s1.172-1.74,1.172-2.887
					c0-1.154-0.391-2.123-1.172-2.908s-1.698-1.178-2.75-1.178C40.425,172.8,39.506,173.193,38.729,173.978z"/>
				<path style="fill:#1A1A1A;" d="M51.72,174.531v8.033h-2.132v-10.766h2.132c0.361-0.393,1.107-0.588,2.238-0.588
					c1.358,0,2.454,0.416,3.286,1.248c0.832,0.832,1.256,1.85,1.272,3.051v7.055h-2.12v-6.961c0-0.73-0.247-1.337-0.742-1.82
					c-0.495-0.482-1.06-0.724-1.696-0.724c-0.628,0-1.182,0.228-1.661,0.683C52.022,174.017,51.83,174.281,51.72,174.531z"/>
				<path style="fill:#1A1A1A;" d="M62.98,174.531v8.033h-2.132v-10.766h2.132c0.361-0.393,1.107-0.588,2.238-0.588
					c1.358,0,2.454,0.416,3.286,1.248c0.832,0.832,1.256,1.85,1.272,3.051v7.055h-2.12v-6.961c0-0.73-0.247-1.337-0.742-1.82
					c-0.495-0.482-1.06-0.724-1.696-0.724c-0.628,0-1.182,0.228-1.661,0.683C63.282,174.017,63.09,174.281,62.98,174.531z"/>
				<path style="fill:#1A1A1A;" d="M73.733,176.851v0.035c0,1.146,0.389,2.109,1.166,2.887s1.696,1.166,2.756,1.166
					c1.052,0,1.975-0.396,2.768-1.189c0.11-0.11,0.322-0.357,0.636-0.742l2.002,0.707c-0.298,0.502-0.644,0.945-1.037,1.33
					c-1.193,1.201-2.65,1.803-4.37,1.803c-1.704,0-3.146-0.592-4.328-1.773c-1.182-1.182-1.773-2.577-1.773-4.188
					c0-1.625,0.591-3.026,1.773-4.204c1.182-1.178,2.625-1.767,4.328-1.767c1.72,0,3.176,0.597,4.37,1.79
					c1.029,1.036,1.543,2.419,1.543,4.146H73.733z M74.11,174.991h7.055c-0.503-1.46-1.673-2.19-3.51-2.19
					C75.81,172.8,74.628,173.531,74.11,174.991z"/>
				<path style="fill:#1A1A1A;" d="M94.003,179.125l2.026,0.742c-0.4,0.542-0.718,0.935-0.954,1.178
					c-1.193,1.201-2.65,1.803-4.37,1.803c-1.704,0-3.146-0.592-4.328-1.773c-1.182-1.182-1.773-2.581-1.773-4.199
					c0-1.617,0.591-3.015,1.773-4.192c1.182-1.178,2.625-1.767,4.328-1.767c1.72,0,3.161,0.581,4.323,1.743
					c0.267,0.267,0.601,0.671,1.001,1.213l-2.026,0.754c-0.283-0.354-0.475-0.585-0.577-0.694c-0.762-0.754-1.668-1.131-2.721-1.131
					s-1.967,0.391-2.744,1.172s-1.166,1.748-1.166,2.902c0,1.146,0.389,2.111,1.166,2.893s1.692,1.172,2.744,1.172
					s1.975-0.396,2.768-1.189C93.544,179.678,93.721,179.47,94.003,179.125z"/>
				<path style="fill:#1A1A1A;" d="M99.021,171.798v-4.181h2.12v4.181h2.002v1.838h-2.002v8.928h-2.12v-8.928h-2.002v-1.838H99.021z
					"/>
				<path style="fill:#1A1A1A;" d="M106.312,176.851v0.035c0,1.146,0.389,2.109,1.166,2.887s1.696,1.166,2.756,1.166
					c1.052,0,1.975-0.396,2.768-1.189c0.11-0.11,0.322-0.357,0.636-0.742l2.002,0.707c-0.298,0.502-0.644,0.945-1.037,1.33
					c-1.193,1.201-2.65,1.803-4.37,1.803c-1.704,0-3.146-0.592-4.328-1.773c-1.182-1.182-1.773-2.577-1.773-4.188
					c0-1.625,0.591-3.026,1.773-4.204c1.182-1.178,2.625-1.767,4.328-1.767c1.72,0,3.176,0.597,4.37,1.79
					c1.029,1.036,1.543,2.419,1.543,4.146H106.312z M106.688,174.991h7.055c-0.503-1.46-1.673-2.19-3.51-2.19
					C108.388,172.8,107.207,173.531,106.688,174.991z"/>
				<path style="fill:#1A1A1A;" d="M129.515,182.564h-2.132v-1.885c-0.84,1.445-2.12,2.168-3.84,2.168
					c-1.704,0-3.147-0.592-4.329-1.773s-1.772-2.577-1.772-4.188c0-1.625,0.591-3.026,1.772-4.204s2.625-1.767,4.329-1.767
					c1.72,0,3,0.715,3.84,2.144v-7.444h2.132V182.564z M127.383,177.735v-1.72c-0.149-0.777-0.507-1.449-1.072-2.014
					c-0.793-0.801-1.716-1.201-2.768-1.201c-1.06,0-1.979,0.393-2.756,1.178c-0.778,0.785-1.167,1.754-1.167,2.908
					c0,1.146,0.389,2.109,1.167,2.887c0.777,0.777,1.696,1.166,2.756,1.166c1.052,0,1.975-0.396,2.768-1.189
					C126.876,179.183,127.233,178.512,127.383,177.735z"/>
				<path style="fill:#1A1A1A;" d="M152.346,167.947c1.708,1.713,2.562,3.75,2.562,6.113c0,2.379-0.854,4.423-2.562,6.131
					c-1.708,1.707-3.794,2.562-6.26,2.562c-2.458,0-4.54-0.854-6.248-2.562c-1.708-1.708-2.562-3.752-2.562-6.131
					c0-2.363,0.854-4.4,2.562-6.113c1.708-1.711,3.791-2.566,6.248-2.566C148.552,165.38,150.638,166.236,152.346,167.947z
					 M146.086,167.241c-1.806,0-3.368,0.661-4.688,1.984s-1.979,2.935-1.979,4.835c0,1.916,0.659,3.533,1.979,4.853
					s2.882,1.979,4.688,1.979c1.814,0,3.38-0.66,4.7-1.979s1.979-2.937,1.979-4.853c0-1.9-0.659-3.512-1.979-4.835
					S147.9,167.241,146.086,167.241z"/>
				<path style="fill:#1A1A1A;" d="M156.722,171.798h2.132v1.237c0.84-1.405,2.116-2.108,3.828-2.108
					c1.711,0,3.156,0.587,4.334,1.761c1.178,1.174,1.767,2.573,1.767,4.198c0,1.61-0.589,3.006-1.767,4.188
					c-1.178,1.182-2.623,1.773-4.334,1.773c-1.712,0-2.988-0.711-3.828-2.133v5.596h-2.132V171.798z M158.854,175.98v1.814
					c0.142,0.762,0.506,1.433,1.095,2.014c0.77,0.762,1.681,1.143,2.733,1.143c1.052,0,1.969-0.391,2.75-1.172
					s1.172-1.746,1.172-2.893c0-1.154-0.391-2.123-1.172-2.908s-1.698-1.178-2.75-1.178c-1.052,0-1.979,0.4-2.78,1.201
					C159.344,174.559,158.995,175.218,158.854,175.98z"/>
				<path style="fill:#1A1A1A;" d="M172.281,176.851v0.035c0,1.146,0.389,2.109,1.166,2.887s1.696,1.166,2.756,1.166
					c1.052,0,1.975-0.396,2.768-1.189c0.11-0.11,0.322-0.357,0.636-0.742l2.002,0.707c-0.298,0.502-0.644,0.945-1.037,1.33
					c-1.193,1.201-2.65,1.803-4.37,1.803c-1.704,0-3.146-0.592-4.328-1.773c-1.182-1.182-1.773-2.577-1.773-4.188
					c0-1.625,0.591-3.026,1.773-4.204c1.182-1.178,2.625-1.767,4.328-1.767c1.72,0,3.176,0.597,4.37,1.79
					c1.029,1.036,1.543,2.419,1.543,4.146H172.281z M172.658,174.991h7.055c-0.503-1.46-1.673-2.19-3.51-2.19
					C174.357,172.8,173.176,173.531,172.658,174.991z"/>
				<path style="fill:#1A1A1A;" d="M185.837,174.531v8.033h-2.132v-10.766h2.132c0.361-0.393,1.107-0.588,2.238-0.588
					c1.358,0,2.454,0.416,3.286,1.248c0.832,0.832,1.256,1.85,1.272,3.051v7.055h-2.12v-6.961c0-0.73-0.247-1.337-0.742-1.82
					c-0.495-0.482-1.06-0.724-1.696-0.724c-0.628,0-1.182,0.228-1.661,0.683C186.14,174.017,185.947,174.281,185.837,174.531z"/>
				<path style="fill:#1A1A1A;" d="M215.583,167.947c1.708,1.713,2.562,3.75,2.562,6.113c0,2.379-0.854,4.423-2.562,6.131
					c-1.708,1.707-3.794,2.562-6.26,2.562c-2.458,0-4.54-0.854-6.248-2.562c-1.708-1.708-2.562-3.752-2.562-6.131
					c0-2.363,0.854-4.4,2.562-6.113c1.708-1.711,3.791-2.566,6.248-2.566C211.789,165.38,213.875,166.236,215.583,167.947z
					 M209.323,167.241c-1.806,0-3.368,0.661-4.688,1.984s-1.979,2.935-1.979,4.835c0,1.916,0.659,3.533,1.979,4.853
					s2.882,1.979,4.688,1.979c1.814,0,3.38-0.66,4.7-1.979s1.979-2.937,1.979-4.853c0-1.9-0.659-3.512-1.979-4.835
					S211.137,167.241,209.323,167.241z"/>
				<path style="fill:#1A1A1A;" d="M222.173,174.531v8.033h-2.132v-10.766h2.132c0.361-0.393,1.107-0.588,2.238-0.588
					c1.358,0,2.454,0.416,3.286,1.248c0.832,0.832,1.256,1.85,1.272,3.051v7.055h-2.12v-6.961c0-0.73-0.247-1.337-0.742-1.82
					c-0.495-0.482-1.06-0.724-1.696-0.724c-0.628,0-1.182,0.228-1.661,0.683C222.475,174.017,222.283,174.281,222.173,174.531z"/>
				<path style="fill:#1A1A1A;" d="M233.562,165.615v16.949h-2.132v-16.949H233.562z"/>
				<path style="fill:#1A1A1A;" d="M238.385,168.73c0.287,0.279,0.43,0.592,0.43,0.938c0,0.361-0.144,0.681-0.43,0.959
					c-0.287,0.279-0.646,0.418-1.078,0.418c-0.447,0-0.812-0.139-1.095-0.418c-0.283-0.278-0.424-0.598-0.424-0.959
					c0-0.346,0.141-0.658,0.424-0.938c0.283-0.277,0.648-0.418,1.095-0.418C237.739,168.312,238.099,168.453,238.385,168.73z
					 M238.356,171.798v10.766h-2.12v-10.766H238.356z"/>
				<path style="fill:#1A1A1A;" d="M243.043,174.531v8.033h-2.132v-10.766h2.132c0.361-0.393,1.107-0.588,2.238-0.588
					c1.358,0,2.454,0.416,3.286,1.248c0.832,0.832,1.256,1.85,1.272,3.051v7.055h-2.12v-6.961c0-0.73-0.247-1.337-0.742-1.82
					c-0.495-0.482-1.06-0.724-1.696-0.724c-0.628,0-1.182,0.228-1.661,0.683C243.346,174.017,243.153,174.281,243.043,174.531z"/>
				<path style="fill:#1A1A1A;" d="M253.797,176.851v0.035c0,1.146,0.389,2.109,1.166,2.887s1.696,1.166,2.756,1.166
					c1.052,0,1.975-0.396,2.768-1.189c0.11-0.11,0.322-0.357,0.636-0.742l2.002,0.707c-0.298,0.502-0.644,0.945-1.037,1.33
					c-1.193,1.201-2.65,1.803-4.37,1.803c-1.704,0-3.146-0.592-4.328-1.773c-1.182-1.182-1.773-2.577-1.773-4.188
					c0-1.625,0.591-3.026,1.773-4.204c1.182-1.178,2.625-1.767,4.328-1.767c1.72,0,3.176,0.597,4.37,1.79
					c1.029,1.036,1.543,2.419,1.543,4.146H253.797z M254.174,174.991h7.055c-0.503-1.46-1.673-2.19-3.51-2.19
					C255.874,172.8,254.692,173.531,254.174,174.991z"/>
				<path style="fill:#1A1A1A;" d="M271.358,182.564v-16.949h2.132v15.1h6.089v1.85H271.358z"/>
				<path style="fill:#1A1A1A;" d="M282.241,176.851v0.035c0,1.146,0.389,2.109,1.166,2.887s1.696,1.166,2.756,1.166
					c1.052,0,1.975-0.396,2.768-1.189c0.11-0.11,0.322-0.357,0.636-0.742l2.002,0.707c-0.298,0.502-0.644,0.945-1.037,1.33
					c-1.193,1.201-2.65,1.803-4.37,1.803c-1.704,0-3.146-0.592-4.328-1.773c-1.182-1.182-1.773-2.577-1.773-4.188
					c0-1.625,0.591-3.026,1.773-4.204c1.182-1.178,2.625-1.767,4.328-1.767c1.72,0,3.176,0.597,4.37,1.79
					c1.029,1.036,1.543,2.419,1.543,4.146H282.241z M282.618,174.991h7.055c-0.503-1.46-1.673-2.19-3.51-2.19
					C284.318,172.8,283.136,173.531,282.618,174.991z"/>
				<path style="fill:#1A1A1A;" d="M305.444,182.564h-2.132v-1.885c-0.84,1.445-2.12,2.168-3.84,2.168
					c-1.704,0-3.147-0.592-4.329-1.773s-1.772-2.577-1.772-4.188c0-1.625,0.591-3.026,1.772-4.204s2.625-1.767,4.329-1.767
					c1.72,0,3,0.715,3.84,2.144v-1.261h2.132V182.564z M303.312,177.735v-1.72c-0.149-0.777-0.507-1.449-1.072-2.014
					c-0.793-0.801-1.716-1.201-2.768-1.201c-1.06,0-1.979,0.393-2.756,1.178c-0.778,0.785-1.167,1.754-1.167,2.908
					c0,1.146,0.389,2.109,1.167,2.887c0.777,0.777,1.696,1.166,2.756,1.166c1.052,0,1.975-0.396,2.768-1.189
					C302.806,179.183,303.163,178.512,303.312,177.735z"/>
				<path style="fill:#1A1A1A;" d="M312.593,173.4c-0.974,0.15-1.728,0.537-2.261,1.16c-0.534,0.625-0.801,1.408-0.801,2.351v5.653
					h-2.132v-10.766h2.132v1.531c0.314-0.84,0.99-1.425,2.026-1.754L312.593,173.4z"/>
				<path style="fill:#1A1A1A;" d="M316.504,174.531v8.033h-2.132v-10.766h2.132c0.361-0.393,1.107-0.588,2.238-0.588
					c1.358,0,2.454,0.416,3.286,1.248c0.832,0.832,1.256,1.85,1.272,3.051v7.055h-2.12v-6.961c0-0.73-0.247-1.337-0.742-1.82
					c-0.495-0.482-1.06-0.724-1.696-0.724c-0.628,0-1.182,0.228-1.661,0.683C316.806,174.017,316.614,174.281,316.504,174.531z"/>
				<path style="fill:#1A1A1A;" d="M327.993,168.73c0.287,0.279,0.43,0.592,0.43,0.938c0,0.361-0.144,0.681-0.43,0.959
					c-0.287,0.279-0.646,0.418-1.078,0.418c-0.447,0-0.812-0.139-1.095-0.418c-0.283-0.278-0.424-0.598-0.424-0.959
					c0-0.346,0.141-0.658,0.424-0.938c0.283-0.277,0.648-0.418,1.095-0.418C327.347,168.312,327.707,168.453,327.993,168.73z
					 M327.964,171.798v10.766h-2.12v-10.766H327.964z"/>
				<path style="fill:#1A1A1A;" d="M332.651,174.531v8.033h-2.132v-10.766h2.132c0.361-0.393,1.107-0.588,2.238-0.588
					c1.358,0,2.454,0.416,3.286,1.248c0.832,0.832,1.256,1.85,1.272,3.051v7.055h-2.12v-6.961c0-0.73-0.247-1.337-0.742-1.82
					c-0.495-0.482-1.06-0.724-1.696-0.724c-0.628,0-1.182,0.228-1.661,0.683C332.954,174.017,332.761,174.281,332.651,174.531z"/>
				<path style="fill:#1A1A1A;" d="M351.013,180.738c-0.738,1.406-1.967,2.109-3.687,2.109c-1.704,0-3.146-0.592-4.328-1.773
					c-1.182-1.182-1.773-2.577-1.773-4.188c0-1.625,0.591-3.024,1.773-4.198c1.182-1.174,2.625-1.761,4.328-1.761
					c1.712,0,2.992,0.711,3.84,2.132v-1.261h2.132v8.104c0,1.578-0.569,2.934-1.708,4.063c-1.193,1.202-2.646,1.802-4.358,1.802
					s-3.152-0.584-4.322-1.754c-0.267-0.275-0.605-0.684-1.013-1.226l2.038-0.741c0.275,0.345,0.467,0.564,0.577,0.658
					c0.762,0.77,1.668,1.154,2.721,1.154C349.455,183.859,350.715,182.819,351.013,180.738z M351.155,175.98
					c-0.157-0.762-0.526-1.438-1.107-2.025c-0.762-0.77-1.668-1.154-2.721-1.154c-1.06,0-1.979,0.393-2.756,1.178
					s-1.166,1.754-1.166,2.908c0,1.146,0.389,2.111,1.166,2.893s1.696,1.172,2.756,1.172c1.052,0,1.975-0.396,2.768-1.189
					c0.549-0.55,0.903-1.201,1.06-1.955V175.98z"/>
			</g>
		</g>
	</g>
</g>
</svg>
