<?xml version="1.0" encoding="utf-8"?>
<!-- Generator: Adobe Illustrator 16.0.0, SVG Export Plug-In . SVG Version: 6.00 Build 0)  -->
<!DOCTYPE svg PUBLIC "-//W3C//DTD SVG 1.1//EN" "http://www.w3.org/Graphics/SVG/1.1/DTD/svg11.dtd" [
	<!ENTITY ns_flows "http://ns.adobe.com/Flows/1.0/">
	<!ENTITY ns_extend "http://ns.adobe.com/Extensibility/1.0/">
	<!ENTITY ns_ai "http://ns.adobe.com/AdobeIllustrator/10.0/">
	<!ENTITY ns_graphs "http://ns.adobe.com/Graphs/1.0/">
	<!ENTITY ns_vars "http://ns.adobe.com/Variables/1.0/">
	<!ENTITY ns_imrep "http://ns.adobe.com/ImageReplacement/1.0/">
	<!ENTITY ns_sfw "http://ns.adobe.com/SaveForWeb/1.0/">
	<!ENTITY ns_custom "http://ns.adobe.com/GenericCustomNamespace/1.0/">
	<!ENTITY ns_adobe_xpath "http://ns.adobe.com/XPath/1.0/">
]>
<svg version="1.1" xmlns:x="&ns_extend;" xmlns:i="&ns_ai;" xmlns:graph="&ns_graphs;"
	 xmlns="http://www.w3.org/2000/svg" xmlns:xlink="http://www.w3.org/1999/xlink" xmlns:a="http://ns.adobe.com/AdobeSVGViewerExtensions/3.0/"
	 x="0px" y="0px" width="374.783px" height="245.078px" viewBox="0 0 374.783 245.078"
	 style="enable-background:new 0 0 374.783 245.078;" xml:space="preserve">
<metadata>
	<sfw  xmlns="&ns_sfw;">
		<slices></slices>
		<sliceSourceBounds  height="3968.767" width="4609.67" bottomLeftOrigin="true" x="-293.671" y="-1879.3"></sliceSourceBounds>
	</sfw>
</metadata>
<g id="Canvas">
</g>
<g id="A4">
</g>
<g id="Color">
	<g>
		<path style="fill:#FFFFFF;" d="M84.299,127.711c0.912,0,1.696,0.351,2.361,1.053l6.578,7.139
			c-3.644,4.504-8.124,7.961-13.441,10.361c-5.313,2.405-11.694,3.599-19.144,3.599c-6.668,0-12.654-1.136-17.974-3.413
			c-5.313-2.271-9.855-5.437-13.618-9.494c-3.769-4.052-6.65-8.895-8.66-14.521c-2.007-5.627-3.013-11.772-3.013-18.439
			c0-6.744,1.117-12.919,3.354-18.528c2.231-5.601,5.378-10.432,9.436-14.489c4.055-4.059,8.904-7.21,14.551-9.461
			c5.652-2.26,11.89-3.389,18.715-3.389c6.658,0,12.483,1.072,17.473,3.197c4.986,2.131,9.259,4.956,12.817,8.474l-5.585,7.756
			c-0.334,0.492-0.757,0.933-1.27,1.309c-0.521,0.37-1.233,0.555-2.146,0.555c-0.953,0-1.92-0.371-2.917-1.117
			c-0.991-0.747-2.257-1.549-3.787-2.417c-1.53-0.869-3.467-1.686-5.803-2.418c-2.336-0.754-5.306-1.124-8.906-1.124
			c-4.22,0-8.098,0.741-11.636,2.208c-3.538,1.461-6.582,3.566-9.122,6.296c-2.549,2.732-4.532,6.055-5.963,9.96
			c-1.426,3.911-2.139,8.306-2.139,13.188c0,5.053,0.713,9.546,2.139,13.475c1.431,3.929,3.364,7.234,5.804,9.928
			c2.44,2.693,5.313,4.746,8.63,6.169c3.311,1.436,6.868,2.144,10.674,2.144c2.276,0,4.339-0.122,6.173-0.37
			c1.843-0.249,3.545-0.638,5.095-1.181c1.549-0.536,3.017-1.231,4.404-2.079c1.389-0.849,2.764-1.89,4.129-3.133
			c0.414-0.376,0.848-0.668,1.306-0.899C83.266,127.819,83.768,127.711,84.299,127.711z"/>
		<path style="fill:#FFFFFF;" d="M321.022,135.093h35.938v13.78h-52.634V59.124h16.695V135.093z"/>
		<g>
			<path style="fill:#FFFFFF;" d="M188.553,86.51c-2.2-5.6-5.28-10.45-9.25-14.53c-3.97-4.07-8.75-7.27-14.34-9.59
				c-5.59-2.32-11.77-3.48-18.56-3.48c-6.78,0-12.98,1.16-18.59,3.45c-5.6,2.29-10.4,5.5-14.4,9.59c-3.99,4.09-7.08,8.96-9.28,14.56
				c-2.19,5.6-3.28,11.69-3.28,18.28c0,6.57,1.09,12.67,3.28,18.28c2.2,5.6,5.29,10.45,9.28,14.55c4,4.09,8.8,7.28,14.4,9.59
				c5.61,2.29,11.81,3.44,18.59,3.44c6.79,0,12.97-1.15,18.56-3.44c5.59-2.31,10.37-5.5,14.34-9.59c3.97-4.1,7.05-8.95,9.25-14.55
				c2.19-5.61,3.29-11.71,3.29-18.28C191.843,98.2,190.743,92.11,188.553,86.51z M157.113,73.46c1.89-0.68,3.91-1.04,5.99-1.04
				c4.52,0,8.77,1.69,11.97,4.75c3.19,3.05,4.96,7.12,4.96,11.44c0,2.83-0.76,5.55-2.19,7.95c-0.75,1.26-1.68,2.44-2.78,3.49
				c-0.17,0.16-0.35,0.31-0.54,0.44c-0.77,0.55-1.69,0.83-2.62,0.83c-1.15,0-2.3-0.43-3.17-1.27c-1.75-1.66-1.75-4.39,0-6.07
				c1.5-1.43,2.33-3.34,2.33-5.37c0-0.5-0.05-0.99-0.15-1.47c-0.3-1.47-1.05-2.83-2.18-3.92c-0.22-0.21-0.46-0.41-0.7-0.59
				c0-0.01-0.01-0.01-0.01-0.01c-1.39-1.05-3.11-1.63-4.92-1.63c-2.11,0-4.12,0.8-5.63,2.23l-16.97,16.26
				c-1.75,1.68-4.59,1.68-6.33,0c-1.76-1.68-1.76-4.39,0-6.06l16.97-16.25c1.23-1.17,2.61-2.15,4.1-2.9
				C155.843,73.97,156.473,73.7,157.113,73.46z M146.343,64.16c2.9,0,5.26,2.26,5.26,5.04c0,0.94-0.28,1.83-0.76,2.58
				c-0.36,0.58-0.84,1.08-1.42,1.47c-0.87,0.61-1.93,0.96-3.08,0.96s-2.21-0.35-3.07-0.96c-0.67-0.44-1.22-1.05-1.6-1.75
				c-0.38-0.69-0.59-1.47-0.59-2.3C141.083,66.42,143.443,64.16,146.343,64.16z M117.623,77.17c3.19-3.06,7.44-4.75,11.96-4.75
				c1.66,0,3.28,0.23,4.83,0.67c1.06,0.3,2.09,0.7,3.07,1.2c1.48,0.75,2.84,1.72,4.06,2.88c1.76,1.67,1.76,4.38,0,6.05
				c-1.75,1.69-4.59,1.69-6.33,0c-1.52-1.43-3.51-2.23-5.63-2.23c-1.79,0-3.49,0.57-4.88,1.61c-0.01,0-0.01,0-0.02,0.02
				c-0.25,0.17-0.5,0.38-0.73,0.6c-0.14,0.13-0.28,0.27-0.41,0.42c-0.88,0.99-1.49,2.17-1.76,3.43c0,0.01,0,0.01,0,0.02
				c0,0.01,0,0.01,0,0.02c0,0.01,0,0.01,0,0.01c0,0.49-0.16,0.99-0.16,1.49c0,2.03,0.84,3.94,2.33,5.37l17.32,16.59
				c1.75,1.68,1.75,4.4,0,6.06c-0.87,0.84-2.01,1.26-3.16,1.26s-2.29-0.42-3.17-1.26l-16.84-16.12l-0.48-0.46
				c-1.89-1.81-3.29-3.98-4.11-6.34c-0.56-1.63-0.86-3.34-0.86-5.1C112.653,84.29,114.433,80.22,117.623,77.17z M109.153,109.81
				c-2.9,0-5.26-2.25-5.26-5.03c0-2.78,2.36-5.03,5.26-5.03c1,0,1.93,0.27,2.73,0.74c1.51,0.88,2.53,2.47,2.53,4.29
				c0,1.84-1.04,3.45-2.58,4.32C111.053,109.55,110.133,109.81,109.153,109.81z M133.383,136.48c-1.23,0.27-2.5,0.41-3.8,0.41
				c-4.52,0-8.77-1.7-11.96-4.76c-4.57-4.37-5.98-10.64-4.21-16.18c0.78-2.45,2.18-4.77,4.21-6.7c0.14-0.14,0.3-0.27,0.46-0.39
				c1.75-1.28,4.27-1.15,5.87,0.39c1.75,1.67,1.75,4.38,0,6.06c-2.09,1.99-2.77,4.83-2.04,7.39c0.34,1.24,1.03,2.41,2.04,3.38
				c0.09,0.08,0.17,0.16,0.26,0.23c1.47,1.3,3.36,1.99,5.37,1.99c2.12,0,4.11-0.78,5.63-2.22l16.97-16.25c1.75-1.68,4.6-1.68,6.34,0
				c1.75,1.67,1.75,4.39,0,6.06l-16.98,16.24c-1.29,1.23-2.74,2.24-4.32,3.01C136.003,135.74,134.723,136.18,133.383,136.48z
				 M146.343,145.4c-2.9,0-5.26-2.25-5.26-5.02c0-0.7,0.15-1.36,0.41-1.96c0.39-0.88,1.04-1.63,1.85-2.17c0.85-0.57,1.89-0.9,3-0.9
				c1.12,0,2.16,0.33,3.01,0.91c0.72,0.47,1.3,1.12,1.69,1.87c0.36,0.68,0.56,1.44,0.56,2.25
				C151.603,143.15,149.243,145.4,146.343,145.4z M175.063,132.13c-3.19,3.06-7.44,4.76-11.96,4.76c-1.77,0-3.49-0.26-5.12-0.76
				c-0.86-0.26-1.68-0.58-2.48-0.97c-1.59-0.77-3.06-1.79-4.36-3.03c-1.75-1.67-1.75-4.38,0-6.05c1.76-1.68,4.6-1.68,6.33,0
				c1.51,1.44,3.52,2.22,5.63,2.22c2.03,0,3.94-0.71,5.41-2.03c0.07-0.05,0.15-0.12,0.22-0.19c1.02-0.98,1.7-2.16,2.05-3.4
				c0.72-2.55,0.03-5.38-2.05-7.37l-16.97-16.25c-1.76-1.67-1.76-4.39,0-6.06c1.74-1.68,4.59-1.68,6.33,0l16.46,15.76l0.51,0.49
				c1.17,1.12,2.14,2.36,2.89,3.69C181.453,119.08,180.493,126.95,175.063,132.13z M183.533,109.81c-2.06,0-3.84-1.13-4.69-2.79
				c-0.36-0.67-0.56-1.43-0.56-2.24c0-0.79,0.19-1.54,0.53-2.2c0.85-1.68,2.64-2.83,4.72-2.83c2.91,0,5.26,2.25,5.26,5.03
				C188.793,107.56,186.443,109.81,183.533,109.81z"/>
		</g>
		<g>
			<path style="fill:#FFFFFF;" d="M287.988,86.729c-2.2-5.6-5.28-10.45-9.25-14.53c-3.97-4.07-8.75-7.27-14.34-9.59
				c-5.59-2.32-11.77-3.48-18.56-3.48c-6.78,0-12.98,1.16-18.59,3.45c-5.6,2.29-10.4,5.5-14.4,9.59c-3.99,4.09-7.08,8.96-9.28,14.56
				c-2.19,5.6-3.28,11.69-3.28,18.28c0,6.57,1.09,12.67,3.28,18.28c2.2,5.6,5.29,10.45,9.28,14.55c4,4.09,8.8,7.28,14.4,9.59
				c5.61,2.29,11.81,3.44,18.59,3.44c6.79,0,12.97-1.15,18.56-3.44c5.59-2.31,10.37-5.5,14.34-9.59c3.97-4.1,7.05-8.95,9.25-14.55
				c2.19-5.61,3.29-11.71,3.29-18.28C291.278,98.42,290.178,92.33,287.988,86.729z M256.548,73.68c1.89-0.68,3.91-1.04,5.99-1.04
				c4.52,0,8.77,1.69,11.97,4.75c3.19,3.05,4.96,7.12,4.96,11.44c0,2.83-0.76,5.55-2.19,7.95c-0.75,1.26-1.68,2.44-2.78,3.49
				c-0.17,0.16-0.35,0.31-0.54,0.44c-0.77,0.55-1.69,0.83-2.62,0.83c-1.15,0-2.3-0.43-3.17-1.27c-1.75-1.66-1.75-4.39,0-6.07
				c1.5-1.43,2.33-3.34,2.33-5.37c0-0.5-0.05-0.99-0.15-1.47c-0.3-1.47-1.05-2.83-2.18-3.92c-0.22-0.21-0.46-0.41-0.7-0.59
				c0-0.01-0.01-0.01-0.01-0.01c-1.39-1.05-3.11-1.63-4.92-1.63c-2.11,0-4.12,0.8-5.63,2.23l-16.97,16.26
				c-1.75,1.68-4.59,1.68-6.33,0c-1.76-1.68-1.76-4.39,0-6.06l16.97-16.25c1.23-1.17,2.61-2.15,4.1-2.9
				C255.278,74.19,255.908,73.92,256.548,73.68z M245.778,64.38c2.9,0,5.26,2.26,5.26,5.04c0,0.94-0.28,1.83-0.76,2.58
				c-0.36,0.58-0.84,1.08-1.42,1.47c-0.87,0.61-1.93,0.96-3.08,0.96s-2.21-0.35-3.07-0.96c-0.67-0.44-1.22-1.05-1.6-1.75
				c-0.38-0.69-0.59-1.47-0.59-2.3C240.518,66.64,242.878,64.38,245.778,64.38z M217.058,77.39c3.19-3.06,7.44-4.75,11.96-4.75
				c1.66,0,3.28,0.23,4.83,0.67c1.06,0.3,2.09,0.7,3.07,1.2c1.48,0.75,2.84,1.72,4.06,2.88c1.76,1.67,1.76,4.38,0,6.05
				c-1.75,1.69-4.59,1.69-6.33,0c-1.52-1.43-3.51-2.23-5.63-2.23c-1.79,0-3.49,0.57-4.88,1.61c-0.01,0-0.01,0-0.02,0.02
				c-0.25,0.17-0.5,0.38-0.73,0.6c-0.14,0.13-0.498,0.27-0.627,0.42c-0.88,0.99-0.978,2.17-1.978,3.43c0,0.01,0,0.01,0,0.02
				c0,0.01,0,0.01,0,0.02c0,0.01,0,0.01,0,0.01c0,0.49,0.058,0.99,0.058,1.49c0,2.03,0.949,3.94,2.438,5.37l17.375,16.59
				c1.75,1.68,1.777,4.4,0.027,6.06c-0.87,0.84-1.997,1.26-3.146,1.26s-2.283-0.42-3.163-1.26l-16.837-16.12l-0.478-0.46
				c-1.89-1.81-3.29-3.98-4.109-6.34c-0.56-1.63-0.859-3.34-0.859-5.1C212.088,84.51,213.868,80.44,217.058,77.39z M208.588,110.03
				c-2.9,0-5.26-2.25-5.26-5.03c0-2.78,2.36-5.03,5.26-5.03c1,0,1.93,0.27,2.73,0.74c1.51,0.88,2.53,2.47,2.53,4.29
				c0,1.84-1.04,3.45-2.58,4.32C210.488,109.77,209.568,110.03,208.588,110.03z M232.818,136.7c-1.23,0.27-2.5,0.41-3.8,0.41
				c-4.52,0-8.77-1.7-11.96-4.76c-4.57-4.37-5.98-10.64-4.21-16.18c0.78-2.45,2.18-4.77,4.21-6.7c0.14-0.14,0.3-0.27,0.46-0.39
				c1.75-1.28,4.27-1.15,5.87,0.39c1.75,1.67,1.75,4.38,0,6.06c-2.09,1.99-2.77,4.83-2.04,7.39c0.34,1.24,1.03,2.41,2.04,3.38
				c0.09,0.08,0.17,0.16,0.26,0.23c1.47,1.3,3.36,1.99,5.37,1.99c2.12,0,4.11-0.78,5.63-2.22l16.97-16.25c1.75-1.68,4.6-1.68,6.34,0
				c1.75,1.67,1.75,4.39,0,6.06l-16.98,16.24c-1.29,1.23-2.74,2.24-4.32,3.01C235.438,135.96,234.158,136.4,232.818,136.7z
				 M245.778,145.62c-2.9,0-5.26-2.25-5.26-5.02c0-0.7,0.15-1.36,0.41-1.96c0.39-0.88,1.04-1.63,1.85-2.17c0.85-0.57,1.89-0.9,3-0.9
				c1.12,0,2.16,0.33,3.01,0.91c0.72,0.47,1.3,1.12,1.69,1.87c0.36,0.68,0.56,1.44,0.56,2.25
				C251.038,143.37,248.678,145.62,245.778,145.62z M274.498,132.35c-3.19,3.06-7.44,4.76-11.96,4.76c-1.77,0-3.49-0.26-5.12-0.76
				c-0.86-0.26-1.68-0.58-2.48-0.97c-1.59-0.77-3.06-1.79-4.36-3.03c-1.75-1.67-1.75-4.38,0-6.05c1.76-1.68,4.6-1.68,6.33,0
				c1.51,1.44,3.52,2.22,5.63,2.22c2.03,0,3.94-0.71,5.41-2.03c0.07-0.05,0.15-0.12,0.22-0.19c1.02-0.98,1.7-2.16,2.05-3.4
				c0.72-2.55,0.03-5.38-2.05-7.37l-16.97-16.25c-1.76-1.67-1.76-4.39,0-6.06c1.74-1.68,4.59-1.68,6.33,0l16.46,15.76l0.51,0.49
				c1.17,1.12,2.14,2.36,2.89,3.69C280.888,119.3,279.928,127.17,274.498,132.35z M282.968,110.03c-2.06,0-3.84-1.13-4.69-2.79
				c-0.36-0.67-0.56-1.43-0.56-2.24c0-0.79,0.19-1.54,0.53-2.2c0.85-1.68,2.64-2.83,4.72-2.83c2.91,0,5.26,2.25,5.26,5.03
				C288.228,107.78,285.878,110.03,282.968,110.03z"/>
		</g>
		<g>
			<path style="fill:#FFFFFF;" d="M31.876,178.752l1.484,1.319c-1.908,1.735-4.009,2.603-6.301,2.603
				c-2.466,0-4.548-0.85-6.249-2.55c-1.7-1.7-2.55-3.74-2.55-6.119c0-2.355,0.85-4.389,2.55-6.101
				c1.7-1.712,3.783-2.568,6.249-2.568c2.292,0,4.393,0.872,6.301,2.615l-1.484,1.319c-1.555-1.374-3.161-2.062-4.817-2.062
				c-1.806,0-3.367,0.658-4.682,1.973c-1.315,1.315-1.973,2.923-1.973,4.823c0,1.916,0.658,3.53,1.973,4.841
				c1.315,1.312,2.876,1.967,4.682,1.967C28.716,180.814,30.321,180.127,31.876,178.752z"/>
			<path style="fill:#FFFFFF;" d="M41.052,170.838c1.719,0,3.164,0.589,4.334,1.767s1.755,2.58,1.755,4.205
				c0,1.61-0.585,3.006-1.755,4.188s-2.615,1.772-4.334,1.772c-1.704,0-3.147-0.591-4.329-1.772s-1.772-2.578-1.772-4.188
				c0-1.625,0.591-3.027,1.772-4.205S39.348,170.838,41.052,170.838z M38.295,173.9c-0.777,0.786-1.166,1.755-1.166,2.909
				c0,1.146,0.389,2.108,1.166,2.886s1.696,1.166,2.756,1.166c1.052,0,1.969-0.389,2.75-1.166s1.172-1.739,1.172-2.886
				c0-1.154-0.391-2.124-1.172-2.909c-0.781-0.785-1.698-1.178-2.75-1.178C39.992,172.722,39.073,173.115,38.295,173.9z"/>
			<path style="fill:#FFFFFF;" d="M51.287,174.454v8.033h-2.132v-10.765h2.132c0.361-0.393,1.107-0.589,2.238-0.589
				c1.358,0,2.454,0.416,3.286,1.249c0.832,0.832,1.256,1.849,1.272,3.05v7.055h-2.12v-6.961c0-0.73-0.247-1.337-0.742-1.82
				s-1.06-0.724-1.696-0.724c-0.628,0-1.182,0.228-1.661,0.683C51.589,173.939,51.396,174.203,51.287,174.454z"/>
			<path style="fill:#FFFFFF;" d="M62.546,174.454v8.033h-2.132v-10.765h2.132c0.361-0.393,1.107-0.589,2.238-0.589
				c1.358,0,2.454,0.416,3.286,1.249c0.832,0.832,1.256,1.849,1.272,3.05v7.055h-2.12v-6.961c0-0.73-0.247-1.337-0.742-1.82
				s-1.06-0.724-1.696-0.724c-0.628,0-1.182,0.228-1.661,0.683C62.849,173.939,62.656,174.203,62.546,174.454z"/>
			<path style="fill:#FFFFFF;" d="M73.3,176.774v0.035c0,1.146,0.389,2.108,1.166,2.886s1.696,1.166,2.756,1.166
				c1.052,0,1.975-0.396,2.768-1.189c0.11-0.11,0.322-0.357,0.636-0.742l2.002,0.707c-0.298,0.502-0.644,0.946-1.037,1.331
				c-1.193,1.202-2.65,1.802-4.37,1.802c-1.704,0-3.146-0.591-4.328-1.772c-1.182-1.182-1.773-2.578-1.773-4.188
				c0-1.625,0.591-3.027,1.773-4.205c1.182-1.178,2.625-1.767,4.328-1.767c1.72,0,3.176,0.597,4.37,1.79
				c1.029,1.037,1.543,2.418,1.543,4.146H73.3z M73.677,174.913h7.055c-0.503-1.46-1.673-2.191-3.51-2.191
				C75.376,172.722,74.195,173.453,73.677,174.913z"/>
			<path style="fill:#FFFFFF;" d="M93.57,179.047l2.026,0.742c-0.4,0.542-0.718,0.935-0.954,1.178
				c-1.193,1.202-2.65,1.802-4.37,1.802c-1.704,0-3.146-0.591-4.328-1.772c-1.182-1.182-1.773-2.582-1.773-4.199
				c0-1.617,0.591-3.015,1.773-4.193c1.182-1.178,2.625-1.767,4.328-1.767c1.72,0,3.161,0.581,4.323,1.743
				c0.267,0.267,0.601,0.671,1.001,1.213l-2.026,0.754c-0.283-0.354-0.475-0.585-0.577-0.695c-0.762-0.754-1.668-1.131-2.721-1.131
				s-1.967,0.391-2.744,1.172c-0.777,0.782-1.166,1.749-1.166,2.903c0,1.146,0.389,2.11,1.166,2.892s1.692,1.172,2.744,1.172
				s1.975-0.396,2.768-1.189C93.111,179.601,93.287,179.393,93.57,179.047z"/>
			<path style="fill:#FFFFFF;" d="M98.587,171.721v-4.181h2.12v4.181h2.002v1.837h-2.002v8.928h-2.12v-8.928h-2.002v-1.837H98.587z"
				/>
			<path style="fill:#FFFFFF;" d="M105.878,176.774v0.035c0,1.146,0.389,2.108,1.166,2.886s1.696,1.166,2.756,1.166
				c1.052,0,1.975-0.396,2.768-1.189c0.11-0.11,0.322-0.357,0.636-0.742l2.002,0.707c-0.298,0.502-0.644,0.946-1.037,1.331
				c-1.193,1.202-2.65,1.802-4.37,1.802c-1.704,0-3.146-0.591-4.328-1.772c-1.182-1.182-1.773-2.578-1.773-4.188
				c0-1.625,0.591-3.027,1.773-4.205c1.182-1.178,2.625-1.767,4.328-1.767c1.72,0,3.176,0.597,4.37,1.79
				c1.029,1.037,1.543,2.418,1.543,4.146H105.878z M106.255,174.913h7.055c-0.503-1.46-1.673-2.191-3.51-2.191
				C107.955,172.722,106.773,173.453,106.255,174.913z"/>
			<path style="fill:#FFFFFF;" d="M129.081,182.486h-2.132v-1.884c-0.84,1.445-2.12,2.167-3.84,2.167
				c-1.704,0-3.147-0.591-4.329-1.772s-1.772-2.578-1.772-4.188c0-1.625,0.591-3.027,1.772-4.205s2.625-1.767,4.329-1.767
				c1.72,0,3,0.714,3.84,2.144v-7.444h2.132V182.486z M126.949,177.657v-1.72c-0.149-0.777-0.507-1.449-1.072-2.014
				c-0.793-0.801-1.716-1.202-2.768-1.202c-1.06,0-1.979,0.393-2.756,1.178c-0.778,0.786-1.167,1.755-1.167,2.909
				c0,1.146,0.389,2.108,1.167,2.886c0.777,0.777,1.696,1.166,2.756,1.166c1.052,0,1.975-0.396,2.768-1.189
				C126.442,179.106,126.8,178.435,126.949,177.657z"/>
			<path style="fill:#FFFFFF;" d="M151.913,167.87c1.708,1.712,2.562,3.75,2.562,6.113c0,2.379-0.854,4.423-2.562,6.131
				c-1.708,1.708-3.794,2.562-6.26,2.562c-2.458,0-4.54-0.854-6.248-2.562c-1.708-1.708-2.562-3.751-2.562-6.131
				c0-2.363,0.854-4.401,2.562-6.113c1.708-1.711,3.791-2.567,6.248-2.567C148.118,165.302,150.205,166.158,151.913,167.87z
				 M145.652,167.163c-1.806,0-3.368,0.662-4.688,1.984c-1.319,1.323-1.979,2.935-1.979,4.835c0,1.916,0.659,3.534,1.979,4.853
				c1.319,1.319,2.882,1.979,4.688,1.979c1.814,0,3.38-0.66,4.7-1.979c1.319-1.319,1.979-2.937,1.979-4.853
				c0-1.9-0.659-3.512-1.979-4.835C149.033,167.825,147.466,167.163,145.652,167.163z"/>
			<path style="fill:#FFFFFF;" d="M156.288,171.721h2.132v1.237c0.84-1.406,2.116-2.108,3.828-2.108
				c1.711,0,3.156,0.587,4.334,1.761c1.178,1.174,1.767,2.574,1.767,4.199c0,1.61-0.589,3.006-1.767,4.188
				c-1.178,1.182-2.623,1.772-4.334,1.772c-1.712,0-2.988-0.71-3.828-2.132v5.595h-2.132V171.721z M158.42,175.902v1.814
				c0.142,0.762,0.506,1.433,1.095,2.014c0.77,0.762,1.681,1.142,2.733,1.142c1.052,0,1.969-0.39,2.75-1.172
				c0.781-0.781,1.172-1.745,1.172-2.892c0-1.154-0.391-2.124-1.172-2.909c-0.781-0.785-1.698-1.178-2.75-1.178
				c-1.052,0-1.979,0.4-2.78,1.202C158.911,174.481,158.562,175.141,158.42,175.902z"/>
			<path style="fill:#FFFFFF;" d="M171.847,176.774v0.035c0,1.146,0.389,2.108,1.166,2.886s1.696,1.166,2.756,1.166
				c1.052,0,1.975-0.396,2.768-1.189c0.11-0.11,0.322-0.357,0.636-0.742l2.002,0.707c-0.298,0.502-0.644,0.946-1.037,1.331
				c-1.193,1.202-2.65,1.802-4.37,1.802c-1.704,0-3.146-0.591-4.328-1.772c-1.182-1.182-1.773-2.578-1.773-4.188
				c0-1.625,0.591-3.027,1.773-4.205c1.182-1.178,2.625-1.767,4.328-1.767c1.72,0,3.176,0.597,4.37,1.79
				c1.029,1.037,1.543,2.418,1.543,4.146H171.847z M172.224,174.913h7.055c-0.503-1.46-1.673-2.191-3.51-2.191
				C173.924,172.722,172.742,173.453,172.224,174.913z"/>
			<path style="fill:#FFFFFF;" d="M185.404,174.454v8.033h-2.132v-10.765h2.132c0.361-0.393,1.107-0.589,2.238-0.589
				c1.358,0,2.454,0.416,3.286,1.249c0.832,0.832,1.256,1.849,1.272,3.05v7.055h-2.12v-6.961c0-0.73-0.247-1.337-0.742-1.82
				s-1.06-0.724-1.696-0.724c-0.628,0-1.182,0.228-1.661,0.683C185.706,173.939,185.514,174.203,185.404,174.454z"/>
			<path style="fill:#FFFFFF;" d="M215.149,167.87c1.708,1.712,2.562,3.75,2.562,6.113c0,2.379-0.854,4.423-2.562,6.131
				c-1.708,1.708-3.794,2.562-6.26,2.562c-2.458,0-4.54-0.854-6.248-2.562c-1.708-1.708-2.562-3.751-2.562-6.131
				c0-2.363,0.854-4.401,2.562-6.113c1.708-1.711,3.791-2.567,6.248-2.567C211.355,165.302,213.441,166.158,215.149,167.87z
				 M208.889,167.163c-1.806,0-3.368,0.662-4.688,1.984c-1.319,1.323-1.979,2.935-1.979,4.835c0,1.916,0.659,3.534,1.979,4.853
				c1.319,1.319,2.882,1.979,4.688,1.979c1.814,0,3.38-0.66,4.7-1.979c1.319-1.319,1.979-2.937,1.979-4.853
				c0-1.9-0.659-3.512-1.979-4.835C212.27,167.825,210.703,167.163,208.889,167.163z"/>
			<path style="fill:#FFFFFF;" d="M221.739,174.454v8.033h-2.132v-10.765h2.132c0.361-0.393,1.107-0.589,2.238-0.589
				c1.358,0,2.454,0.416,3.286,1.249c0.832,0.832,1.256,1.849,1.272,3.05v7.055h-2.12v-6.961c0-0.73-0.247-1.337-0.742-1.82
				s-1.06-0.724-1.696-0.724c-0.628,0-1.182,0.228-1.661,0.683C222.042,173.939,221.849,174.203,221.739,174.454z"/>
			<path style="fill:#FFFFFF;" d="M233.128,165.538v16.949h-2.132v-16.949H233.128z"/>
			<path style="fill:#FFFFFF;" d="M237.952,168.653c0.287,0.279,0.43,0.591,0.43,0.937c0,0.361-0.144,0.681-0.43,0.96
				s-0.646,0.418-1.078,0.418c-0.447,0-0.812-0.139-1.095-0.418s-0.424-0.599-0.424-0.96c0-0.346,0.141-0.658,0.424-0.937
				c0.283-0.278,0.648-0.418,1.095-0.418C237.306,168.235,237.665,168.375,237.952,168.653z M237.922,171.721v10.765h-2.12v-10.765
				H237.922z"/>
			<path style="fill:#FFFFFF;" d="M242.61,174.454v8.033h-2.132v-10.765h2.132c0.361-0.393,1.107-0.589,2.238-0.589
				c1.358,0,2.454,0.416,3.286,1.249c0.832,0.832,1.256,1.849,1.272,3.05v7.055h-2.12v-6.961c0-0.73-0.247-1.337-0.742-1.82
				s-1.06-0.724-1.696-0.724c-0.628,0-1.182,0.228-1.661,0.683C242.912,173.939,242.72,174.203,242.61,174.454z"/>
			<path style="fill:#FFFFFF;" d="M253.364,176.774v0.035c0,1.146,0.389,2.108,1.166,2.886s1.696,1.166,2.756,1.166
				c1.052,0,1.975-0.396,2.768-1.189c0.11-0.11,0.322-0.357,0.636-0.742l2.002,0.707c-0.298,0.502-0.644,0.946-1.037,1.331
				c-1.193,1.202-2.65,1.802-4.37,1.802c-1.704,0-3.146-0.591-4.328-1.772c-1.182-1.182-1.773-2.578-1.773-4.188
				c0-1.625,0.591-3.027,1.773-4.205c1.182-1.178,2.625-1.767,4.328-1.767c1.72,0,3.176,0.597,4.37,1.79
				c1.029,1.037,1.543,2.418,1.543,4.146H253.364z M253.741,174.913h7.055c-0.503-1.46-1.673-2.191-3.51-2.191
				C255.44,172.722,254.259,173.453,253.741,174.913z"/>
			<path style="fill:#FFFFFF;" d="M270.925,182.486v-16.949h2.132v15.1h6.089v1.849H270.925z"/>
			<path style="fill:#FFFFFF;" d="M281.808,176.774v0.035c0,1.146,0.389,2.108,1.166,2.886s1.696,1.166,2.756,1.166
				c1.052,0,1.975-0.396,2.768-1.189c0.11-0.11,0.322-0.357,0.636-0.742l2.002,0.707c-0.298,0.502-0.644,0.946-1.037,1.331
				c-1.193,1.202-2.65,1.802-4.37,1.802c-1.704,0-3.146-0.591-4.328-1.772c-1.182-1.182-1.773-2.578-1.773-4.188
				c0-1.625,0.591-3.027,1.773-4.205c1.182-1.178,2.625-1.767,4.328-1.767c1.72,0,3.176,0.597,4.37,1.79
				c1.029,1.037,1.543,2.418,1.543,4.146H281.808z M282.185,174.913h7.055c-0.503-1.46-1.673-2.191-3.51-2.191
				C283.884,172.722,282.703,173.453,282.185,174.913z"/>
			<path style="fill:#FFFFFF;" d="M305.011,182.486h-2.132v-1.884c-0.84,1.445-2.12,2.167-3.84,2.167
				c-1.704,0-3.147-0.591-4.329-1.772s-1.772-2.578-1.772-4.188c0-1.625,0.591-3.027,1.772-4.205s2.625-1.767,4.329-1.767
				c1.72,0,3,0.714,3.84,2.144v-1.26h2.132V182.486z M302.879,177.657v-1.72c-0.149-0.777-0.507-1.449-1.072-2.014
				c-0.793-0.801-1.716-1.202-2.768-1.202c-1.06,0-1.979,0.393-2.756,1.178c-0.778,0.786-1.167,1.755-1.167,2.909
				c0,1.146,0.389,2.108,1.167,2.886c0.777,0.777,1.696,1.166,2.756,1.166c1.052,0,1.975-0.396,2.768-1.189
				C302.372,179.106,302.729,178.435,302.879,177.657z"/>
			<path style="fill:#FFFFFF;" d="M312.16,173.323c-0.974,0.149-1.728,0.536-2.261,1.16c-0.534,0.625-0.801,1.408-0.801,2.35v5.653
				h-2.132v-10.765h2.132v1.531c0.314-0.84,0.99-1.425,2.026-1.755L312.16,173.323z"/>
			<path style="fill:#FFFFFF;" d="M316.07,174.454v8.033h-2.132v-10.765h2.132c0.361-0.393,1.107-0.589,2.238-0.589
				c1.358,0,2.454,0.416,3.286,1.249c0.832,0.832,1.256,1.849,1.272,3.05v7.055h-2.12v-6.961c0-0.73-0.247-1.337-0.742-1.82
				s-1.06-0.724-1.696-0.724c-0.628,0-1.182,0.228-1.661,0.683C316.373,173.939,316.18,174.203,316.07,174.454z"/>
			<path style="fill:#FFFFFF;" d="M327.56,168.653c0.287,0.279,0.43,0.591,0.43,0.937c0,0.361-0.144,0.681-0.43,0.96
				s-0.646,0.418-1.078,0.418c-0.447,0-0.812-0.139-1.095-0.418s-0.424-0.599-0.424-0.96c0-0.346,0.141-0.658,0.424-0.937
				c0.283-0.278,0.648-0.418,1.095-0.418C326.914,168.235,327.273,168.375,327.56,168.653z M327.53,171.721v10.765h-2.12v-10.765
				H327.53z"/>
			<path style="fill:#FFFFFF;" d="M332.218,174.454v8.033h-2.132v-10.765h2.132c0.361-0.393,1.107-0.589,2.238-0.589
				c1.358,0,2.454,0.416,3.286,1.249c0.832,0.832,1.256,1.849,1.272,3.05v7.055h-2.12v-6.961c0-0.73-0.247-1.337-0.742-1.82
				s-1.06-0.724-1.696-0.724c-0.628,0-1.182,0.228-1.661,0.683C332.52,173.939,332.328,174.203,332.218,174.454z"/>
			<path style="fill:#FFFFFF;" d="M350.58,180.661c-0.738,1.406-1.967,2.108-3.687,2.108c-1.704,0-3.146-0.591-4.328-1.772
				c-1.182-1.182-1.773-2.578-1.773-4.188c0-1.625,0.591-3.025,1.773-4.199c1.182-1.174,2.625-1.761,4.328-1.761
				c1.712,0,2.992,0.71,3.84,2.132v-1.26h2.132v8.104c0,1.578-0.569,2.933-1.708,4.063c-1.193,1.202-2.646,1.802-4.358,1.802
				s-3.152-0.585-4.322-1.755c-0.267-0.275-0.605-0.683-1.013-1.225l2.038-0.742c0.275,0.345,0.467,0.565,0.577,0.659
				c0.762,0.77,1.668,1.154,2.721,1.154C349.021,183.782,350.281,182.741,350.58,180.661z M350.721,175.902
				c-0.157-0.762-0.526-1.437-1.107-2.026c-0.762-0.77-1.668-1.154-2.721-1.154c-1.06,0-1.979,0.393-2.756,1.178
				c-0.777,0.786-1.166,1.755-1.166,2.909c0,1.146,0.389,2.11,1.166,2.892c0.777,0.782,1.696,1.172,2.756,1.172
				c1.052,0,1.975-0.396,2.768-1.189c0.549-0.549,0.903-1.201,1.06-1.955V175.902z"/>
		</g>
	</g>
</g>
</svg>
